Coordinates
version=1
nRows=8
nColumns=40
inDegrees=yes

Units are S.I. units (second, meters, Newtons, ...)
Angles are in degrees.

endheader
time	pelvis_tilt	pelvis_list	pelvis_rotation	pelvis_tx	pelvis_ty	pelvis_tz	hip_flexion_r	hip_adduction_r	hip_rotation_r	knee_angle_r	knee_angle_r_beta	ankle_angle_r	subtalar_angle_r	mtp_angle_r	hip_flexion_l	hip_adduction_l	hip_rotation_l	knee_angle_l	knee_angle_l_beta	ankle_angle_l	subtalar_angle_l	mtp_angle_l	lumbar_extension	lumbar_bending	lumbar_rotation	arm_flex_r	arm_add_r	arm_rot_r	elbow_flex_r	pro_sup_r	wrist_flex_r	wrist_dev_r	arm_flex_l	arm_add_l	arm_rot_l	elbow_flex_l	pro_sup_l	wrist_flex_l	wrist_dev_l
     22.82642857	     -3.39809263	     -3.40710752	      8.00521469	      1.00274122	      0.90436254	      0.57747418	     18.71153041	      5.52038184	     -9.82419399	     33.80307121	     33.80307121	     20.30209826	    -13.47064449	      0.69477169	     28.32824932	    -15.39333791	      3.34557418	     55.80896681	     55.80896681	     19.16124806	    -19.52025853	     22.04183595	    -11.54978962	      4.02530625	      2.10251118	     34.24138206	    -14.17958501	      0.71798578	     40.42900905	     45.71247258	      0.00000000	      0.00000000	     -5.79291377	    -10.80296220	     10.01341049	     28.86427557	     45.50768798	      0.00000000	      0.00000000
     22.85035714	     -3.17490911	     -3.19408627	      9.06823683	      1.00128681	      0.90379410	      0.57695530	     18.40716264	      5.36099939	     -9.98894547	     34.12721344	     34.12721344	     20.57525024	    -14.70850333	      1.05610790	     28.91613833	    -15.02553645	      3.63103409	     53.97204825	     53.97204825	     18.98491429	    -19.49105914	     21.99491640	    -11.62899585	      3.90650704	      2.05898676	     36.55756008	    -14.44521314	      0.79633493	     41.97321895	     45.66409523	      0.00000000	      0.00000000	     -8.06819413	    -10.34666778	     11.13229402	     27.88389614	     45.29316466	      0.00000000	      0.00000000
     22.87428571	     -3.03628318	     -2.96463828	     10.22570638	      0.99959298	      0.90360417	      0.57599548	     18.05751297	      5.11385163	    -10.33906169	     34.20521907	     34.20521907	     20.82804237	    -15.71848640	      1.58309796	     29.48515280	    -14.43464762	      4.01429678	     51.82181261	     51.82181261	     18.64011844	    -19.46179934	     21.62259612	    -11.63407355	      3.75763661	      1.93944525	     38.78415580	    -14.81424561	      1.00091193	     43.79504150	     45.59877029	      0.00000000	      0.00000000	    -10.31379009	     -9.97573904	     12.52164535	     27.26208686	     45.02678741	      0.00000000	      0.00000000
     22.89821429	     -2.94990308	     -2.76432776	     11.45151017	      0.99764116	      0.90387848	      0.57474250	     17.70806460	      4.83378610	    -10.85428190	     34.22350143	     34.22350143	     21.61813476	    -16.18070368	      3.60898428	     29.93242902	    -13.78969217	      4.31754289	     49.22806736	     49.22806736	     17.31378457	    -19.40768668	     19.02111093	    -11.66811572	      3.63925567	      2.73068011	     39.85153864	    -16.99961146	      3.03731280	     47.97967796	     45.35927884	      0.00000000	      0.00000000	    -12.54943425	    -11.23075443	     20.70949358	     29.64309667	     43.66186128	      0.00000000	      0.00000000
     22.92214286	     -2.98043773	     -2.49023305	     12.72593970	      0.99547247	      0.90472379	      0.57309518	     17.23901524	      4.39087127	    -11.57157628	     33.78139862	     33.78139862	     21.65636150	    -16.65233003	      3.74027009	     30.41884386	    -12.78706546	      4.85780162	     46.60232653	     46.60232653	     16.81654902	    -19.31997422	     19.36347024	    -11.53891263	      3.42895235	      2.60285954	     42.14133316	    -17.39294462	      2.62823658	     49.12395880	     45.35135165	      0.00000000	      0.00000000	    -14.43104137	    -10.82453647	     21.42230059	     29.13734484	     43.54442249	      0.00000000	      0.00000000
     22.94607143	     -3.04184059	     -2.25146361	     14.00469583	      0.99320350	      0.90600949	      0.57113097	     16.65805598	      3.95608161	    -12.39941191	     33.09246661	     33.09246661	     21.64486510	    -16.86545273	      3.89079338	     30.78316172	    -11.72252303	      5.41627204	     43.81124704	     43.81124704	     15.90949923	    -19.15915836	     18.89155963	    -11.41689388	      3.27196733	      2.42129951	     44.38536622	    -17.79215882	      2.23318289	     50.85790364	     45.32184775	      0.00000000	      0.00000000	    -16.35822894	    -10.49927210	     22.39426332	     29.12582662	     43.39304254	      0.00000000	      0.00000000
     22.97000000	     -3.23818427	     -2.06969549	     15.23552815	      0.99086398	      0.90755137	      0.56920406	     16.11999450	      3.55895697	    -13.30300193	     32.19078775	     32.19078775	     21.41209165	    -16.99427752	      3.64052555	     31.01522120	    -10.72359190	      5.80730935	     40.63263272	     40.63263272	     13.71827937	    -18.95862191	     15.73606372	    -11.16190205	      3.11477815	      3.08605052	     45.59157478	    -19.19097969	      1.63468212	     54.14283444	     45.28910804	      0.00000000	      0.00000000	    -17.79665181	    -11.87592931	     30.66849252	     31.01422410	     42.64355468	      0.00000000	      0.00000000
     22.99392857	     -3.41473258	     -1.85736127	     16.42065896	      0.98852479	      0.90963119	      0.56705367	     15.39056763	      3.16524388	    -14.20232508	     31.01729333	     31.01729333	     21.24983678	    -16.92419989	      3.91270644	     31.15860261	     -9.56235933	      6.43132565	     37.70034740	     37.70034740	     12.62658330	    -18.49672439	     15.99897550	    -10.95586881	      2.86534071	      3.23948222	     47.68863957	    -19.88900558	      1.29029244	     55.40063389	     45.27205471	      0.00000000	      0.00000000	    -19.34286987	    -11.54106421	     30.81982382	     31.05382232	     42.62729140	      0.00000000	      0.00000000
